<svg xmlns="http://www.w3.org/2000/svg" xmlns:xlink="http://www.w3.org/1999/xlink" width="512" zoomAndPan="magnify" viewBox="0 0 384 383.999986" height="512" preserveAspectRatio="xMidYMid meet" version="1.0"><defs><clipPath id="e3f0a939f5"><path d="M 117 34 L 267 34 L 267 299 L 117 299 Z M 117 34 " clip-rule="nonzero"/></clipPath><clipPath id="cb25f1890d"><path d="M 84.25 60.328125 L 242.007812 23.503906 L 299.804688 271.097656 L 142.046875 307.921875 Z M 84.25 60.328125 " clip-rule="nonzero"/></clipPath><clipPath id="f60a9e6a5c"><path d="M 84.25 60.328125 L 242.007812 23.503906 L 299.804688 271.097656 L 142.046875 307.921875 Z M 84.25 60.328125 " clip-rule="nonzero"/></clipPath><clipPath id="0b2a789a17"><path d="M 161.773438 319.953125 L 202.273438 319.953125 L 202.273438 360.453125 L 161.773438 360.453125 Z M 161.773438 319.953125 " clip-rule="nonzero"/></clipPath></defs><rect x="-38.4" width="460.8" fill="#ffffff" y="-38.399999" height="460.799983" fill-opacity="1"/><rect x="-38.4" width="460.8" fill="#18cb96" y="-38.399999" height="460.799983" fill-opacity="1"/><g clip-path="url(#e3f0a939f5)"><g clip-path="url(#cb25f1890d)"><g clip-path="url(#f60a9e6a5c)"><path fill="#ffffff" d="M 185.21875 298.3125 C 184.320312 298.523438 183.363281 298.523438 182.417969 298.277344 C 179.707031 297.5625 177.882812 295.03125 178.070312 292.238281 L 184.78125 192.078125 L 125.128906 206 C 122.941406 206.511719 120.660156 205.71875 119.25 203.976562 C 117.847656 202.222656 117.566406 199.820312 118.539062 197.796875 L 195.304688 37.582031 C 196.511719 35.070312 199.300781 33.765625 202 34.441406 C 204.691406 35.121094 206.53125 37.609375 206.398438 40.378906 L 201.636719 140.199219 L 259.058594 126.796875 C 261.246094 126.285156 263.519531 127.074219 264.929688 128.824219 C 266.335938 130.574219 266.613281 132.972656 265.652344 134.996094 L 189.164062 295.144531 C 188.375 296.789062 186.898438 297.921875 185.21875 298.3125 Z M 185.21875 298.3125 " fill-opacity="1" fill-rule="nonzero"/></g></g></g><g clip-path="url(#0b2a789a17)"><path fill="#ffffff" d="M 161.773438 340.082031 C 161.773438 334.503906 164.324219 329.503906 167.980469 325.851562 C 171.632812 322.199219 176.632812 319.953125 182.210938 319.953125 C 187.785156 319.953125 192.773438 322.210938 196.425781 325.863281 C 200.082031 329.519531 202.273438 334.503906 202.273438 340.082031 C 202.273438 345.660156 200.3125 350.875 196.65625 354.542969 C 193.003906 358.210938 187.773438 360.441406 182.195312 360.441406 C 176.621094 360.441406 171.835938 357.746094 168.183594 354.09375 C 164.53125 350.441406 161.773438 345.660156 161.773438 340.082031 Z M 161.773438 340.082031 " fill-opacity="1" fill-rule="nonzero"/></g></svg>